<svg preserveAspectRatio="none" overflow="visible" style="display: block;" width="206.791" height="464.201" viewBox="0 0 206.791 464.201" fill="none" xmlns="http://www.w3.org/2000/svg">
<g id="Group 1000006557">
<g id="Ellipse 455" opacity="0.3" filter="url(#filter0_d_4711_867)">
<path d="M74.7906 20.6123C110.898 67.2375 131.791 122.464 131.791 181.665C131.791 237.886 112.948 290.523 80.1265 335.612" stroke="url(#paint0_linear_4711_867)" stroke-width="2" shape-rendering="crispEdges"/>
</g>
<g id="Ellipse 456">
<ellipse cx="124.14" cy="121.068" rx="4.34971" ry="4.31364" fill="#D68800"/>
<path d="M124.14 114.58C127.727 114.58 130.665 117.468 130.665 121.068C130.665 124.669 127.727 127.557 124.14 127.557C120.554 127.557 117.616 124.669 117.616 121.068C117.616 117.468 120.554 114.58 124.14 114.58Z" stroke="#FDD048" stroke-opacity="0.2" stroke-width="4.3497"/>
</g>
<g id="Ellipse 457">
<ellipse cx="130.315" cy="221.721" rx="4.34971" ry="4.31364" fill="#D68800"/>
<path d="M130.315 215.232C133.901 215.232 136.839 218.12 136.839 221.721C136.839 225.321 133.901 228.209 130.315 228.209C126.729 228.209 123.791 225.321 123.791 221.721C123.791 218.12 126.729 215.232 130.315 215.232Z" stroke="#FDD048" stroke-opacity="0.2" stroke-width="4.3497"/>
</g>
</g>
<defs>
<filter id="filter0_d_4711_867" x="1.54972e-06" y="8.34465e-07" width="206.791" height="464.201" filterUnits="userSpaceOnUse" color-interpolation-filters="sRGB">
<feFlood flood-opacity="0" result="BackgroundImageFix"/>
<feColorMatrix in="SourceAlpha" type="matrix" values="0 0 0 0 0 0 0 0 0 0 0 0 0 0 0 0 0 0 127 0" result="hardAlpha"/>
<feOffset dy="54"/>
<feGaussianBlur stdDeviation="37"/>
<feComposite in2="hardAlpha" operator="out"/>
<feColorMatrix type="matrix" values="0 0 0 0 0.901961 0 0 0 0 0.94902 0 0 0 0 1 0 0 0 0.6 0"/>
<feBlend mode="normal" in2="BackgroundImageFix" result="effect1_dropShadow_4711_867"/>
<feBlend mode="normal" in="SourceGraphic" in2="effect1_dropShadow_4711_867" result="shape"/>
</filter>
<linearGradient id="paint0_linear_4711_867" x1="102.791" y1="69.15" x2="97.3939" y2="289.553" gradientUnits="userSpaceOnUse">
<stop stop-color="#FFC71D" stop-opacity="0"/>
<stop offset="0.48461" stop-color="#FFC71D"/>
<stop offset="1" stop-color="#FFC71D" stop-opacity="0"/>
</linearGradient>
</defs>
</svg>
