<svg preserveAspectRatio="none" overflow="visible" style="display: block;" width="60" height="56" viewBox="0 0 60 56" fill="none" xmlns="http://www.w3.org/2000/svg">
<foreignObject x="-95" y="-95" width="250" height="246"><div xmlns="http://www.w3.org/1999/xhtml" style="backdrop-filter:blur(47.5px);clip-path:url(#bgblur_0_4711_904_clip_path);height:100%;width:100%"></div></foreignObject><path id="Rectangle 9705" data-figma-bg-blur-radius="95" d="M12 1H48C54.0751 1 59 5.92487 59 12V44C59 50.0751 54.0751 55 48 55H12C5.92487 55 1 50.0751 1 44V12C1 5.92487 5.92487 1 12 1Z" fill="#FFD160" fill-opacity="0.2" stroke="white" stroke-width="2"/>
<defs>
<clipPath id="bgblur_0_4711_904_clip_path" transform="translate(95 95)"><path d="M12 1H48C54.0751 1 59 5.92487 59 12V44C59 50.0751 54.0751 55 48 55H12C5.92487 55 1 50.0751 1 44V12C1 5.92487 5.92487 1 12 1Z"/>
</clipPath></defs>
</svg>
